<mxfile host="app.diagrams.net" modified="2021-05-06T14:24:27.514Z" agent="5.0 (X11; CrOS aarch64 13816.64.0) AppleWebKit/537.36 (KHTML, like Gecko) Chrome/90.0.4430.100 Safari/537.36" etag="Rb3BD-XSfhbiYl2oGvvV" version="14.6.10" type="github">
  <diagram id="UT8kvrL2FS7cbMcp8yLi" name="Page-1">
    <mxGraphModel dx="582" dy="415" grid="1" gridSize="10" guides="1" tooltips="1" connect="1" arrows="1" fold="1" page="1" pageScale="1" pageWidth="850" pageHeight="1100" math="0" shadow="0">
      <root>
        <mxCell id="0" />
        <mxCell id="1" parent="0" />
        <mxCell id="-IYPEcj46R-dNp7kBAaJ-8" style="edgeStyle=orthogonalEdgeStyle;rounded=0;orthogonalLoop=1;jettySize=auto;html=1;exitX=0.5;exitY=1;exitDx=0;exitDy=0;entryX=0.5;entryY=0;entryDx=0;entryDy=0;" edge="1" parent="1" source="-IYPEcj46R-dNp7kBAaJ-1" target="-IYPEcj46R-dNp7kBAaJ-3">
          <mxGeometry relative="1" as="geometry" />
        </mxCell>
        <mxCell id="-IYPEcj46R-dNp7kBAaJ-9" style="edgeStyle=orthogonalEdgeStyle;rounded=0;orthogonalLoop=1;jettySize=auto;html=1;exitX=0.5;exitY=1;exitDx=0;exitDy=0;entryX=0.5;entryY=0;entryDx=0;entryDy=0;" edge="1" parent="1" source="-IYPEcj46R-dNp7kBAaJ-1" target="-IYPEcj46R-dNp7kBAaJ-2">
          <mxGeometry relative="1" as="geometry" />
        </mxCell>
        <mxCell id="-IYPEcj46R-dNp7kBAaJ-10" style="edgeStyle=orthogonalEdgeStyle;rounded=0;orthogonalLoop=1;jettySize=auto;html=1;exitX=0.5;exitY=1;exitDx=0;exitDy=0;entryX=0.5;entryY=0;entryDx=0;entryDy=0;" edge="1" parent="1" source="-IYPEcj46R-dNp7kBAaJ-1" target="-IYPEcj46R-dNp7kBAaJ-4">
          <mxGeometry relative="1" as="geometry" />
        </mxCell>
        <mxCell id="-IYPEcj46R-dNp7kBAaJ-1" value="Correct Number?" style="rounded=1;whiteSpace=wrap;html=1;" vertex="1" parent="1">
          <mxGeometry x="240" y="190" width="120" height="60" as="geometry" />
        </mxCell>
        <mxCell id="-IYPEcj46R-dNp7kBAaJ-11" style="edgeStyle=orthogonalEdgeStyle;rounded=0;orthogonalLoop=1;jettySize=auto;html=1;exitX=0.5;exitY=1;exitDx=0;exitDy=0;entryX=0.5;entryY=0;entryDx=0;entryDy=0;" edge="1" parent="1" source="-IYPEcj46R-dNp7kBAaJ-2" target="-IYPEcj46R-dNp7kBAaJ-6">
          <mxGeometry relative="1" as="geometry" />
        </mxCell>
        <mxCell id="-IYPEcj46R-dNp7kBAaJ-2" value="Input" style="rounded=1;whiteSpace=wrap;html=1;" vertex="1" parent="1">
          <mxGeometry x="50" y="300" width="120" height="60" as="geometry" />
        </mxCell>
        <mxCell id="-IYPEcj46R-dNp7kBAaJ-12" style="edgeStyle=orthogonalEdgeStyle;rounded=0;orthogonalLoop=1;jettySize=auto;html=1;exitX=0.5;exitY=1;exitDx=0;exitDy=0;entryX=0.5;entryY=0;entryDx=0;entryDy=0;" edge="1" parent="1" source="-IYPEcj46R-dNp7kBAaJ-3" target="-IYPEcj46R-dNp7kBAaJ-5">
          <mxGeometry relative="1" as="geometry" />
        </mxCell>
        <mxCell id="-IYPEcj46R-dNp7kBAaJ-3" value="Process" style="rounded=1;whiteSpace=wrap;html=1;" vertex="1" parent="1">
          <mxGeometry x="240" y="300" width="120" height="60" as="geometry" />
        </mxCell>
        <mxCell id="-IYPEcj46R-dNp7kBAaJ-13" style="edgeStyle=orthogonalEdgeStyle;rounded=0;orthogonalLoop=1;jettySize=auto;html=1;exitX=0.5;exitY=1;exitDx=0;exitDy=0;entryX=0.5;entryY=0;entryDx=0;entryDy=0;" edge="1" parent="1" source="-IYPEcj46R-dNp7kBAaJ-4" target="-IYPEcj46R-dNp7kBAaJ-7">
          <mxGeometry relative="1" as="geometry" />
        </mxCell>
        <mxCell id="-IYPEcj46R-dNp7kBAaJ-4" value="Output" style="rounded=1;whiteSpace=wrap;html=1;" vertex="1" parent="1">
          <mxGeometry x="425" y="300" width="120" height="60" as="geometry" />
        </mxCell>
        <mxCell id="-IYPEcj46R-dNp7kBAaJ-5" value="Check if number = some_variable" style="rounded=1;whiteSpace=wrap;html=1;" vertex="1" parent="1">
          <mxGeometry x="240" y="420" width="120" height="60" as="geometry" />
        </mxCell>
        <mxCell id="-IYPEcj46R-dNp7kBAaJ-6" value="Get Number" style="rounded=1;whiteSpace=wrap;html=1;" vertex="1" parent="1">
          <mxGeometry x="50" y="420" width="120" height="60" as="geometry" />
        </mxCell>
        <mxCell id="-IYPEcj46R-dNp7kBAaJ-7" value="Show if correct" style="rounded=1;whiteSpace=wrap;html=1;" vertex="1" parent="1">
          <mxGeometry x="425" y="420" width="120" height="60" as="geometry" />
        </mxCell>
      </root>
    </mxGraphModel>
  </diagram>
</mxfile>
